<?xml version="1.0" encoding="utf-8"?>
<!-- Generator: Adobe Illustrator 26.0.3, SVG Export Plug-In . SVG Version: 6.00 Build 0)  -->
<svg version="1.1" id="Layer_1" xmlns="http://www.w3.org/2000/svg" xmlns:xlink="http://www.w3.org/1999/xlink" x="0px" y="0px"
	 viewBox="0 0 60 60" style="enable-background:new 0 0 60 60;" xml:space="preserve">
<style type="text/css">
	.st0{fill:#F9A01B;}
	.st1{fill:#58C1EF;}
	.st2{fill:#8BC249;}
</style>
<g id="XMLID_242_">
	<path id="XMLID_343_" class="st0" d="M19.75,11.6v3.2c0,4-3.3,7.3-7.3,7.3h-3.2c-4.1,0-7.3-3.3-7.3-7.3v-3.2c0-4,3.3-7.3,7.3-7.3
		h3.2C16.45,4.3,19.75,7.5,19.75,11.6z"/>
	<path id="XMLID_342_" class="st1" d="M58.05,50.8v1.5c0,1.9-1.5,3.4-3.4,3.4h-1.5c-1.9,0-3.4-1.5-3.4-3.4v-1.5
		c0-1.9,1.5-3.4,3.4-3.4h1.5C56.55,47.4,58.05,49,58.05,50.8z"/>
	<path id="XMLID_340_" class="st2" d="M39.65,34.9v2.5c0,3.2-2.6,5.7-5.7,5.7h-2.5c-3.2,0-5.7-2.6-5.7-5.7v-2.5
		c0-3.2,2.6-5.7,5.7-5.7h2.5C37.15,29.2,39.65,31.8,39.65,34.9z"/>
</g>
</svg>
